<svg xmlns="http://www.w3.org/2000/svg" viewBox="0 0 32 40" x="0px" y="0px"><g><path fill="#11A8FD" d="M8.2822,17.52c.499,.1431,1.002,.2109,1.4971,.2109,.209,0,.4139-.0268,.6192-.0506l.1884,.6116c.1328,.4297,.5283,.7061,.9561,.7061,.0977,0,.1963-.0146,.2949-.0449,.5273-.1626,.8232-.7222,.6611-1.25l-.1855-.602c.9886-.5201,1.8127-1.3438,2.3324-2.3824l.607,.1739c.0918,.0264,.1846,.0391,.2764,.0391,.4346,0,.835-.2861,.96-.7251,.1523-.5308-.1543-1.0845-.6855-1.2368l-.6057-.1735c.1047-1.0864-.1136-2.1777-.6541-3.1526-.02-.036-.0485-.0648-.0692-.1002l.4803-.4159c.418-.3613,.4629-.9932,.1016-1.4106-.3613-.4185-.9961-.4624-1.4102-.1011l-.4706,.4075c-.5535-.4409-1.1937-.7727-1.8947-.9734-.6882-.1972-1.3949-.2535-2.0874-.1783l-.2163-.7006c-.1611-.5273-.7236-.8232-1.25-.6606-.5273,.1631-.8232,.7227-.6602,1.2505l.216,.6995c-.0468,.0242-.0974,.0366-.1437,.0622-.9747,.5408-1.7376,1.3511-2.2237,2.3284l-.6064-.1736c-.5342-.1548-1.0859,.1553-1.2363,.686-.1523,.5312,.1543,1.085,.6855,1.2368l.605,.1732c-.1096,1.1566,.1586,2.29,.722,3.2549l-.4784,.4141c-.418,.3613-.4629,.9927-.1016,1.4102,.1973,.2285,.4766,.3457,.7559,.3457,.2324,0,.4658-.0801,.6543-.2441l.4743-.4106c.5447,.4349,1.1811,.7728,1.8919,.9765Zm-.1719-8.2485c.5186-.2876,1.0889-.4336,1.666-.4336,.3184,0,.6396,.0444,.9541,.1348,1.8262,.5229,2.8867,2.4346,2.3643,4.2612-.5244,1.8271-2.4385,2.8862-4.2617,2.3633-1.8262-.5229-2.8867-2.4351-2.3643-4.2612,.2539-.8848,.8369-1.6177,1.6416-2.0645Zm20.4111,10.416c-.1875,.1875-.4414,.293-.707,.293h-1.0713c-.1455,1.3418-.6191,3.6553-2.1582,4.8193-.8643,.6528-2.0469,1.2031-3.5781,1.2031l-.0068-.0003v1.9974c0,.5522-.4473,1-1,1H8c-.5527,0-1-.4478-1-1v-8c0-.5522,.4473-1,1-1s1,.4478,1,1v7h10v-1.2933c-1.125-.3168-2.3866-.9094-3.7969-1.8927-.4531-.3159-.5635-.9395-.248-1.3926,.3154-.4526,.9365-.5649,1.3926-.248,2.8945,2.02,5.2617,2.3696,7.0303,1.0308,1.1338-.8564,1.4189-3.4087,1.4297-4.2354,.0068-.5469,.4531-.9883,1-.9883h1.1416c-.2158-.7383-.8857-2.0264-1.3613-2.9429-.6533-1.2568-1.3281-2.5562-1.7314-3.7676-1.4434-4.3242-3.6787-6.3223-7.0654-6.2734-1.4805,.0195-2.7227,.207-3.6914,.5571-.5176,.1885-1.0918-.0806-1.2803-.6001-.1875-.5195,.0811-1.0928,.6006-1.2808,1.1787-.4263,2.6406-.6538,4.3457-.6763,4.2109-.0337,7.2783,2.5151,8.9873,7.6411,.3545,1.062,.9922,2.29,1.6094,3.4775,1.2861,2.4746,2.3018,4.4297,1.1592,5.5723Z"/></g></svg>