<svg xmlns="http://www.w3.org/2000/svg" viewBox="0 0 32 40" x="0px" y="0px"><g><path fill="#11A8FD" d="M28.521,19.6875c-.1875,.1875-.4419,.293-.707,.293h-1.0708c-.1455,1.3418-.6191,3.6553-2.1592,4.8193-.8638,.6528-2.0459,1.2031-3.5771,1.2031l-.0068-.0003v1.9974c0,.5522-.4478,1-1,1H8c-.5522,0-1-.4478-1-1v-8c0-.5522,.4478-1,1-1s1,.4478,1,1v7h10v-1.2933c-1.1252-.3168-2.3871-.9094-3.7974-1.8927-.4526-.3159-.564-.9395-.248-1.3926,.3164-.4517,.9395-.564,1.3926-.248,2.8975,2.0215,5.2627,2.3677,7.0308,1.0312,1.1406-.8628,1.4214-3.4097,1.4297-4.2344,.0054-.5483,.4517-.9897,1-.9897h1.1416c-.2163-.7383-.8857-2.0273-1.3623-2.9443-.6528-1.2559-1.3276-2.5547-1.7314-3.7656-1.4409-4.3237-3.6641-6.313-7.064-6.2739-1.4814,.0195-2.7231,.207-3.6914,.5571-.5205,.188-1.0933-.0811-1.2808-.6001-.188-.5195,.0811-1.0928,.6001-1.2808,1.1787-.4263,2.6411-.6538,4.3457-.6763,4.2534-.0674,7.2798,2.5151,8.9878,7.6416,.3535,1.061,.9917,2.2886,1.6089,3.4761,1.2861,2.4751,2.3018,4.4307,1.1592,5.5732Zm-21.313-2.7866C2.9614,13.8101,2.9966,8.2212,3,7.9849c.0059-.3838,.2305-.73,.5786-.8916,.1689-.0786,4.1792-1.9072,7.9336-.6562,3.7876,1.2627,7.2886,5.498,6.3169,10.8608-.0013,.0073-.0067,.0128-.0082,.02,.2719,.3998,.5276,.8083,.7421,1.2344,.2485,.4932,.0498,1.0947-.4434,1.3428-.144,.0728-.2979,.1069-.4487,.1069-.3662,0-.7183-.2012-.894-.5503-.1642-.3261-.3597-.6423-.5678-.9533-.7226,.2576-1.7435,.5119-2.9761,.5119-1.6992,0-3.7915-.4834-6.0249-2.1094Zm1.1768-1.6172c2.6486,1.928,5.0144,1.8718,6.4597,1.5337-2.6002-2.7214-6.1948-4.5165-6.2415-4.5396-.4956-.2432-.7002-.8423-.457-1.3379,.2432-.4951,.8403-.7007,1.3374-.4575,.1994,.0977,3.6989,1.8412,6.4961,4.6342-.1738-3.7195-3.0358-6.0939-5.1001-6.7822-2.2344-.7456-4.7168-.0654-5.8438,.3325,.1279,1.396,.709,4.6948,3.3491,6.6167Z"/></g></svg>